<svg width="42" height="42" viewBox="0 0 42 42" fill="none" xmlns="http://www.w3.org/2000/svg">
<rect width="42" height="42" fill="black"/>
<path d="M31.1045 7.854C28.8095 7.854 26.6085 8.7657 24.9856 10.3885C23.3628 12.0113 22.4511 14.2124 22.4511 16.5074V21.3252H17.8204C17.5884 21.3252 17.3994 21.5123 17.3994 21.7462V28.1076C17.3994 28.3396 17.5865 28.5286 17.8204 28.5286H22.4511V41.5788C22.4511 41.8108 22.6382 41.9998 22.8721 41.9998H29.2335C29.4655 41.9998 29.6545 41.8127 29.6545 41.5788V28.5286H34.3264C34.5191 28.5286 34.6875 28.3976 34.7342 28.2105L36.3246 21.8491C36.3402 21.787 36.3415 21.7222 36.3284 21.6595C36.3152 21.5969 36.2879 21.5381 36.2486 21.4876C36.2092 21.4371 36.1589 21.3962 36.1014 21.368C36.0439 21.3399 35.9807 21.3253 35.9167 21.3252H29.6545V16.5074C29.6545 16.317 29.692 16.1284 29.7649 15.9525C29.8377 15.7766 29.9445 15.6167 30.0792 15.4821C30.2138 15.3474 30.3737 15.2406 30.5496 15.1677C30.7255 15.0949 30.9141 15.0574 31.1045 15.0574H35.9691C36.2011 15.0574 36.3901 14.8703 36.3901 14.6364V8.27498C36.3901 8.04297 36.203 7.854 35.9691 7.854H31.1045Z" fill="#E0E0E0"/>
</svg>
