<svg width="42" height="42" viewBox="0 0 42 42" fill="none" xmlns="http://www.w3.org/2000/svg">
<rect width="42" height="42" fill="#E0E0E0"/>
<path d="M31.1045 7.85425C28.8095 7.85425 26.6085 8.76594 24.9856 10.3888C23.3628 12.0116 22.4511 14.2126 22.4511 16.5076V21.3255H17.8204C17.5884 21.3255 17.3994 21.5126 17.3994 21.7464V28.1078C17.3994 28.3398 17.5865 28.5288 17.8204 28.5288H22.4511V41.579C22.4511 41.811 22.6382 42 22.8721 42H29.2335C29.4655 42 29.6545 41.8129 29.6545 41.579V28.5288H34.3264C34.5191 28.5288 34.6875 28.3978 34.7342 28.2107L36.3246 21.8493C36.3402 21.7873 36.3415 21.7224 36.3284 21.6598C36.3152 21.5971 36.2879 21.5383 36.2486 21.4878C36.2092 21.4373 36.1589 21.3964 36.1014 21.3683C36.0439 21.3402 35.9807 21.3255 35.9167 21.3255H29.6545V16.5076C29.6545 16.3172 29.692 16.1287 29.7649 15.9527C29.8377 15.7768 29.9445 15.617 30.0792 15.4823C30.2138 15.3477 30.3737 15.2408 30.5496 15.168C30.7255 15.0951 30.9141 15.0576 31.1045 15.0576H35.9691C36.2011 15.0576 36.3901 14.8705 36.3901 14.6366V8.27522C36.3901 8.04322 36.203 7.85425 35.9691 7.85425H31.1045Z" fill="#060606"/>
</svg>
