<svg width="42" height="42" viewBox="0 0 42 42" fill="none" xmlns="http://www.w3.org/2000/svg">
<rect width="42" height="42" fill="#E0E0E0"/>
<path d="M15.5095 7.9248H26.4929C30.677 7.9248 34.0767 11.3244 34.0767 15.5086V26.4919C34.0767 28.5033 33.2777 30.4322 31.8554 31.8545C30.4332 33.2767 28.5042 34.0757 26.4929 34.0757H15.5095C11.3254 34.0757 7.92578 30.6761 7.92578 26.4919V15.5086C7.92578 13.4972 8.72478 11.5683 10.147 10.146C11.5692 8.72381 13.4982 7.9248 15.5095 7.9248ZM15.248 10.5399C13.9996 10.5399 12.8023 11.0358 11.9196 11.9186C11.0368 12.8014 10.5409 13.9986 10.5409 15.247V26.7534C10.5409 29.3554 12.646 31.4606 15.248 31.4606H26.7544C28.0028 31.4606 29.2001 30.9647 30.0829 30.0819C30.9656 29.1991 31.4616 28.0019 31.4616 26.7534V15.247C31.4616 12.645 29.3564 10.5399 26.7544 10.5399H15.248ZM27.8658 12.5012C28.2993 12.5012 28.715 12.6734 29.0215 12.9799C29.3281 13.2864 29.5003 13.7022 29.5003 14.1356C29.5003 14.5691 29.3281 14.9848 29.0215 15.2914C28.715 15.5979 28.2993 15.7701 27.8658 15.7701C27.4323 15.7701 27.0166 15.5979 26.7101 15.2914C26.4036 14.9848 26.2314 14.5691 26.2314 14.1356C26.2314 13.7022 26.4036 13.2864 26.7101 12.9799C27.0166 12.6734 27.4323 12.5012 27.8658 12.5012ZM21.0012 14.4625C22.7351 14.4625 24.398 15.1513 25.6241 16.3774C26.8501 17.6034 27.5389 19.2663 27.5389 21.0002C27.5389 22.7342 26.8501 24.397 25.6241 25.6231C24.398 26.8492 22.7351 27.538 21.0012 27.538C19.2673 27.538 17.6044 26.8492 16.3784 25.6231C15.1523 24.397 14.4635 22.7342 14.4635 21.0002C14.4635 19.2663 15.1523 17.6034 16.3784 16.3774C17.6044 15.1513 19.2673 14.4625 21.0012 14.4625ZM21.0012 17.0776C19.9609 17.0776 18.9631 17.4909 18.2275 18.2265C17.4919 18.9622 17.0786 19.9599 17.0786 21.0002C17.0786 22.0406 17.4919 23.0383 18.2275 23.774C18.9631 24.5096 19.9609 24.9229 21.0012 24.9229C22.0416 24.9229 23.0393 24.5096 23.7749 23.774C24.5106 23.0383 24.9239 22.0406 24.9239 21.0002C24.9239 19.9599 24.5106 18.9622 23.7749 18.2265C23.0393 17.4909 22.0416 17.0776 21.0012 17.0776Z" fill="#060606"/>
</svg>
