<svg width="42" height="42" viewBox="0 0 42 42" fill="none" xmlns="http://www.w3.org/2000/svg">
<rect width="42" height="42" fill="#E0E0E0"/>
<path d="M10.8483 14.0831C12.6226 14.0831 14.0609 12.6448 14.0609 10.8705C14.0609 9.09628 12.6226 7.65796 10.8483 7.65796C9.07406 7.65796 7.63574 9.09628 7.63574 10.8705C7.63574 12.6448 9.07406 14.0831 10.8483 14.0831Z" fill="#060606"/>
<path d="M17.0932 16.5174V34.3407H22.6271V25.5267C22.6271 23.201 23.0646 20.9486 25.9483 20.9486C28.7924 20.9486 28.8276 23.6077 28.8276 25.6735V34.3422H34.3644V24.5679C34.3644 19.7667 33.3308 16.0769 27.7191 16.0769C25.0248 16.0769 23.2188 17.5555 22.4803 18.9547H22.4054V16.5174H17.0932ZM8.07507 16.5174H13.6178V34.3407H8.07507V16.5174Z" fill="#060606"/>
</svg>
