<svg width="42" height="42" viewBox="0 0 42 42" fill="none" xmlns="http://www.w3.org/2000/svg">
<rect width="42" height="42" fill="black"/>
<path d="M10.8483 14.0834C12.6226 14.0834 14.0609 12.645 14.0609 10.8708C14.0609 9.09652 12.6226 7.6582 10.8483 7.6582C9.07406 7.6582 7.63574 9.09652 7.63574 10.8708C7.63574 12.645 9.07406 14.0834 10.8483 14.0834Z" fill="#E0E0E0"/>
<path d="M17.0933 16.5176V34.341H22.6272V25.5269C22.6272 23.2012 23.0648 20.9489 25.9484 20.9489C28.7925 20.9489 28.8277 23.6079 28.8277 25.6738V34.3424H34.3646V24.5682C34.3646 19.7669 33.3309 16.0771 27.7192 16.0771C25.0249 16.0771 23.2189 17.5557 22.4804 18.955H22.4055V16.5176H17.0933ZM8.0752 16.5176H13.6179V34.341H8.0752V16.5176Z" fill="#E0E0E0"/>
</svg>
