<svg width="80" height="58" viewBox="0 0 80 58" fill="none" xmlns="http://www.w3.org/2000/svg">
<path d="M5.4375 22.1978L12.5179 4.98926H14.6068L21.7145 22.1978H19.5748L17.5602 17.2816H9.59184L7.57726 22.1978H5.4375ZM10.3781 15.4121H16.77L13.5741 7.61747L10.3781 15.4121Z" fill="#F7F7F7"/>
<path d="M25.372 22.1978V6.88219H19.4221V4.98926H33.3873V6.88219H27.4374V22.1978H25.372Z" fill="#F7F7F7"/>
<path d="M25.2783 52.9751V35.7666H27.6371L37.3736 50.0262V35.7666H39.4391V52.9751H37.0803L27.3438 38.7155V52.9751H25.2783Z" fill="#F7F7F7"/>
<path d="M62.3386 53.0108V35.8022H74.0936V37.6952H64.3806V43.1276H73.1078V44.9697H64.3806V51.1139H74.3127V53.0068H62.3386V53.0108Z" fill="#F7F7F7"/>
<path d="M5.4375 44.3594C5.4375 39.2438 8.56304 35.5283 13.7266 35.5283C18.8902 35.5283 22.0666 39.0209 22.0666 44.3594C22.0666 49.698 18.9411 53.2844 13.7266 53.2844C8.80557 53.2844 5.4375 49.7918 5.4375 44.3594ZM19.9503 44.3594C19.9503 40.1042 17.5406 37.4252 13.7266 37.4252C9.91261 37.4252 7.55379 40.1042 7.55379 44.3594C7.55379 48.6146 9.93999 51.3914 13.7266 51.3914C17.5133 51.3914 19.9503 48.6615 19.9503 44.3594Z" fill="#F7F7F7"/>
<path d="M42.6272 44.3594C42.6272 39.2438 45.7527 35.5283 51.0415 35.5283C55.4188 35.5283 58.4192 38.0861 59.1585 42.4156H57.0187C56.3811 39.2673 54.167 37.4213 51.0415 37.4213C47.1805 37.4213 44.7943 40.1003 44.7943 44.3555C44.7943 48.6107 47.1805 51.3875 51.0415 51.3875C54.2648 51.3875 56.3537 49.6432 57.0187 46.3971H59.1585C58.3957 50.8713 55.544 53.2844 51.0415 53.2844C45.7527 53.2844 42.6272 49.5689 42.6272 44.3594Z" fill="#F7F7F7"/>
<rect x="0.679688" y="0.679688" width="78.3906" height="25.8281" stroke="#F7F7F7" stroke-width="1.35938"/>
<rect x="0.679688" y="31.4922" width="78.3906" height="25.8281" stroke="#F7F7F7" stroke-width="1.35938"/>
</svg>
